<svg width="632" height="181" viewBox="0 0 632 181" fill="none" xmlns="http://www.w3.org/2000/svg">
<path d="M96.7686 0.000976562L120.832 100.353L145.664 0.000976562H240.896V180.48H175.616L178.177 63.4883L146.177 180.48H94.7207L62.4648 63.4883L65.2803 180.48H0V0L96.7686 0.000976562Z" fill="currentColor"/>
<path fill-rule="evenodd" clip-rule="evenodd" d="M466.156 180.48H393.196L384.236 151.553H322.797L313.068 180.48H244.46L312.301 0.000976562H399.597L466.156 180.48ZM337.389 102.912H370.412L353.772 54.5283L337.389 102.912Z" fill="currentColor"/>
<path d="M501.288 0.000976562L531.24 52.7363L560.168 0.000976562H631.08L562.729 112.385V180.48H494.889V112.385L426.024 0L501.288 0.000976562Z" fill="currentColor"/>
</svg>
