<svg width="683" height="185" viewBox="0 0 683 185" fill="none" xmlns="http://www.w3.org/2000/svg">
<path d="M160.512 111.36C160.512 159.232 131.072 184.32 77.3115 184.32C26.368 184.32 1.02413 159.744 0 112.129H57.8564C58.1126 126.465 64.256 133.889 75.0078 133.889C86.0158 133.889 92.6719 126.976 92.6719 112.896V0.000976562H160.512V111.36Z" fill="currentColor"/>
<path d="M243.424 0.000976562V103.937C243.424 119.297 250.592 126.721 264.16 126.721C277.984 126.721 285.408 119.296 285.408 103.937V0.000976562H353.248V105.473C353.248 157.185 318.944 184.32 264.672 184.32C210.4 184.32 175.584 157.185 175.584 105.473V0L243.424 0.000976562Z" fill="currentColor"/>
<path d="M438.042 0.000976562V125.44L512.538 125.185V180.48H370.202V0L438.042 0.000976562Z" fill="currentColor"/>
<path d="M552.42 0.000976562L582.372 52.7363L611.3 0.000976562H682.212L613.86 112.385V180.48H546.021V112.385L477.156 0L552.42 0.000976562Z" fill="currentColor"/>
</svg>
