<svg width="1151" height="189" viewBox="0 0 1151 189" fill="none" xmlns="http://www.w3.org/2000/svg">
<path d="M283.472 107.776C283.472 123.136 290.64 130.561 304.208 130.561C318.032 130.56 325.456 123.136 325.456 107.776V3.84082H393.296V109.312C393.296 161.024 358.992 188.16 304.72 188.16C250.448 188.16 215.632 161.024 215.632 109.312V3.84082H283.472V107.776Z" fill="currentColor"/>
<path d="M508.298 0C561.29 0 595.082 28.9287 601.226 66.3047H534.41C531.082 58.3688 522.89 50.9445 505.738 50.9443C482.442 50.9443 470.41 71.1684 470.41 95.2324C470.41 121.6 482.954 139.008 508.554 139.008C522.633 139.008 533.129 136.96 539.273 134.4V120.064L497.034 120.32V78.3359H601.226V169.473C588.681 176.129 551.817 188.16 508.298 188.16C438.41 188.16 403.85 148.224 403.85 94.208C403.85 40.7041 441.994 1.24937e-05 508.298 0Z" fill="currentColor"/>
<path d="M683.112 107.776C683.112 123.136 690.28 130.56 703.848 130.561C717.672 130.561 725.096 123.136 725.096 107.776V3.84082H792.937V109.312C792.936 161.024 758.632 188.16 704.36 188.16C650.088 188.16 615.273 161.024 615.272 109.312V3.84082H683.112V107.776Z" fill="currentColor"/>
<path d="M889.762 0C940.706 0 971.17 22.7842 975.266 60.416H908.706C907.938 50.9442 901.026 44.7999 888.994 44.7998C878.242 44.7998 873.378 48.6406 873.378 54.0166C873.378 59.3923 876.962 61.6963 889.762 63.4883L915.361 67.0723C958.369 73.2163 980.642 92.6727 980.642 126.721C980.641 165.888 949.666 188.16 892.322 188.16C836.258 188.16 804.77 164.608 801.698 124.416H868.77C869.538 137.216 876.45 143.872 891.042 143.872C903.842 143.872 910.242 139.52 910.242 133.12C910.242 127.744 906.402 124.16 896.93 122.624L866.21 118.017C824.482 111.873 807.074 92.6724 807.074 59.1367C807.074 23.5527 839.586 1.91043e-05 889.762 0Z" fill="currentColor"/>
<path fill-rule="evenodd" clip-rule="evenodd" d="M221.696 184.32H148.736L139.776 155.393H78.3359L68.6074 184.32H0L67.8398 3.84082H155.136L221.696 184.32ZM92.9277 106.752H125.952L109.312 58.3682L92.9277 106.752Z" fill="currentColor"/>
<path d="M1150.77 57.6006H1098.55V184.32H1030.71V57.6006H977.97V3.84082H1150.77V57.6006Z" fill="currentColor"/>
</svg>
