<svg width="1648" height="189" viewBox="0 0 1648 189" fill="none" xmlns="http://www.w3.org/2000/svg">
<path d="M88.0635 0C139.007 0 169.472 22.7841 173.568 60.416H107.008C106.24 50.9442 99.3278 44.7998 87.2959 44.7998C76.5439 44.7998 71.6797 48.6406 71.6797 54.0166C71.6798 59.3923 75.2641 61.6963 88.0635 63.4883L113.664 67.0723C156.672 73.2163 178.944 92.6728 178.944 126.721C178.944 165.888 147.968 188.16 90.624 188.16C34.56 188.16 3.072 164.608 0 124.416H67.0723C67.8403 137.216 74.7518 143.872 89.3438 143.872C102.144 143.872 108.544 139.52 108.544 133.12C108.544 127.744 104.703 124.16 95.2314 122.624L64.5117 118.017C22.784 111.873 5.37614 92.6724 5.37598 59.1367C5.37598 23.5528 37.8877 0.000126566 88.0635 0Z" fill="currentColor"/>
<path d="M336.67 52.9922H256.542V69.8887H329.502V117.504H256.542V134.912H336.67V184.32H191.262V3.84082H336.67V52.9922Z" fill="currentColor"/>
<path fill-rule="evenodd" clip-rule="evenodd" d="M452.928 3.84082C488.951 3.84082 514.737 21.6215 522.162 48.9092V3.84082H694.962V57.6006H642.738V184.32H574.897V57.6006H523.858C524.184 60.2611 524.352 62.9935 524.352 65.792C524.352 103.424 497.472 129.28 452.928 129.28H420.16V184.32H352.832V3.84082H452.928ZM420.16 80.6406H441.664C451.136 80.6406 456.512 75.7759 456.512 67.584C456.512 59.6482 450.624 55.0401 441.664 55.04H420.16V80.6406Z" fill="currentColor"/>
<path d="M849.13 52.9922H769.002V69.8887H841.962V117.504H769.002V134.912H849.13V184.32H703.722V3.84082H849.13V52.9922Z" fill="currentColor"/>
<path d="M986.124 104.192L1010.96 3.84082H1106.19V184.32H1040.91L1043.47 67.3281L1011.47 184.32H960.012L927.756 67.3281L930.572 184.32H865.292V3.84082H962.06L986.124 104.192Z" fill="currentColor"/>
<path fill-rule="evenodd" clip-rule="evenodd" d="M1225.72 3.84082C1265.91 3.84082 1289.21 22.5282 1289.21 51.4561C1289.21 70.1439 1279.74 85.5042 1263.86 91.9043C1283.32 98.5604 1294.84 114.944 1294.84 134.656C1294.84 164.864 1271.03 184.32 1230.58 184.32H1125.11V3.84082H1225.72ZM1189.11 137.217H1213.43C1221.62 137.217 1226.74 133.376 1226.74 126.464C1226.74 119.296 1221.62 115.2 1213.43 115.2H1189.11V137.217ZM1189.11 72.4482H1211.13C1219.58 72.4482 1224.44 68.3523 1224.44 61.4404C1224.44 54.7845 1219.32 50.9444 1211.13 50.9443H1189.11V72.4482Z" fill="currentColor"/>
<path d="M1452.09 52.9922H1371.96V69.8887H1444.92V117.504H1371.96V134.912H1452.09V184.32H1306.68V3.84082H1452.09V52.9922Z" fill="currentColor"/>
<path fill-rule="evenodd" clip-rule="evenodd" d="M1571.42 3.84082C1616.22 3.84082 1644.38 28.9285 1644.38 64.7686C1644.38 89.6003 1633.63 107.264 1613.15 116.992L1647.71 184.32H1574.49L1548.89 124.929H1534.81V184.32H1468.25V3.84082H1571.42ZM1534.81 80.1279H1561.18C1570.14 80.1279 1575.26 75.776 1575.26 67.584C1575.26 59.3922 1570.14 55.04 1561.18 55.04H1534.81V80.1279Z" fill="currentColor"/>
</svg>
