<svg width="656" height="108" viewBox="0 0 656 108" fill="none" xmlns="http://www.w3.org/2000/svg">
<path d="M336.281 0C364.304 0 379.051 13.5408 381.704 32.8503H346.745C345.903 28.5866 342.594 24.926 335.744 24.9259C328.894 24.9259 327.011 27.8372 327.011 30.4631C327.011 33.8117 328.894 35.4164 336.148 36.4376L349.988 38.48C372.162 41.6828 384.794 52.3257 384.794 72.4443C384.794 93.7299 368.667 107.138 337.495 107.138C306.322 107.138 290.998 92.7085 289.254 71.4229H324.326C325.002 78.4252 328.629 82.5037 336.958 82.5037C344.749 82.5036 347.706 79.5924 347.706 76.0913C347.706 73.0345 346.095 70.4086 340.181 69.5332L323.516 66.9072C299.598 63.1208 292.072 51.0191 292.072 33.5265C292.072 13.6997 308.258 2.84258e-05 336.281 0Z" fill="currentColor"/>
<path d="M94.2073 49.5608L119.896 2.18214H154.152V104.95H119.896V70.6939L101.322 104.95H87.0857L68.5141 70.6981V104.95H34.2582V70.6939H68.5118V36.438H34.2559V70.6939H0V36.438H34.2559V2.18214H68.5118L94.2073 49.5608Z" fill="currentColor"/>
<path d="M241.369 29.2963H197.969V40.2309H237.477V66.4633H197.969V77.6899H241.369V104.95H163.7V2.18214H241.369V29.2963Z" fill="currentColor"/>
<path d="M285.024 104.95H249.416V2.18214H285.024V104.95Z" fill="currentColor"/>
<path d="M466.128 32.8443H442.17V104.95H407.37V32.8443H383.406V2.18214H466.128V32.8443Z" fill="currentColor"/>
<path d="M551.857 29.2963H508.456V40.2309H547.964V66.4633H508.456V77.6899H551.857V104.95H474.194V2.18214H551.857V29.2963Z" fill="currentColor"/>
<path fill-rule="evenodd" clip-rule="evenodd" d="M614.079 2.18214C638.268 2.18221 653.181 15.0069 653.181 35.2713C653.181 49.2693 647.399 59.4742 636.518 64.8652L656 104.95H617.301L602.925 69.3809H595.266V104.95H559.923V2.18214H614.079ZM595.266 31.6172V43.812H608.568C613.541 43.812 616.631 41.8358 616.631 37.7712C616.631 33.7063 613.541 31.6173 608.568 31.6172H595.266Z" fill="currentColor"/>
</svg>
